<svg width="1422" height="588" viewBox="0 0 1422 588" fill="none" xmlns="http://www.w3.org/2000/svg">
<path d="M525.698 570H290.948C249.448 570 210.948 562.75 175.448 548.25C139.948 533.25 109.198 513 83.1982 487.5C57.6982 462 37.4482 432.25 22.4482 398.25C7.94824 363.75 0.698243 327.25 0.698243 288.75C0.698243 250.25 7.94824 214 22.4482 180C37.4482 145.5 57.6982 115.75 83.1982 90.75C109.198 65.25 139.948 45 175.448 30C210.948 15 249.448 7.49996 290.948 7.49996H525.698V180H339.698C302.198 180 271.198 188.75 246.698 206.25C222.198 223.75 209.948 251.25 209.948 288.75C209.948 325.75 222.198 353.25 246.698 371.25C271.198 388.75 302.198 397.5 339.698 397.5H525.698V570ZM1421.55 570H1219.05V187.5H1195.05V377.25C1195.05 407.75 1190.3 436 1180.8 462C1171.8 488 1158.3 510.25 1140.3 528.75C1122.8 546.75 1101.05 561 1075.05 571.5C1049.55 582 1020.55 587.25 988.05 587.25C955.55 587.25 926.55 582 901.05 571.5C875.55 561 854.05 546.5 836.55 528C819.05 509.5 805.55 487.5 796.05 462C787.05 436 782.55 407.75 782.55 377.25V187.5H758.55V570H556.05V210C556.05 180.5 561.3 153 571.8 127.5C582.3 101.5 597.05 79.25 616.05 60.75C635.05 41.75 657.55 27 683.55 16.5C710.05 5.49997 739.05 -3.75509e-05 770.55 -3.75509e-05C804.05 -3.75509e-05 833.55 5.49997 859.05 16.5C885.05 27 906.55 42 923.55 61.5C941.05 81 954.3 104.5 963.3 132C972.3 159.5 976.8 189.5 976.8 222V399.75H1000.8V222C1000.8 190 1005.3 160.5 1014.3 133.5C1023.3 106 1036.55 82.5 1054.05 63C1072.05 43 1094.3 27.5 1120.8 16.5C1147.8 5.49997 1179.05 -3.75509e-05 1214.55 -3.75509e-05C1244.55 -3.75509e-05 1272.05 5.49997 1297.05 16.5C1322.55 27 1344.55 41.75 1363.05 60.75C1381.55 79.25 1395.8 101.5 1405.8 127.5C1416.3 153 1421.55 180.5 1421.55 210V570Z" fill="#E53905"/>
</svg>
